#!OML:ASF H:\MichaelJackson\Top Level 1\Subject 1\Session 1\male.ASF
:FULLY-SPECIFIED
:DEGREES
152
root 5.05473 24.3487 -9.84554 5.31941 2.2531 -3.77576
lowerback 16.5539 -0.304353 0.94889
upperback 2.1334 0.0426163 3.54473
thorax -7.00507 0.0427267 3.24461
lowerneck -8.395 -5.20154 -0.273259
upperneck 2.39498 -7.21544 6.10052
head 2.48438 -3.40693 1.6638
rclavicle -7.55382e-015 3.97569e-016
rhumerus 2.58115 21.0682 -10.5475
rradius 70.3465
rwrist -5.88181
rhand -37.888 -24.7502
rfingers 7.12502
rthumb -10.9313 -54.4456
lclavicle -7.55382e-015 3.97569e-016
lhumerus 5.40558 -0.978983 17.3192
lradius 118.334
lwrist 50.6101
lhand -28.4942 7.08512
lfingers 7.12502
lthumb -1.86326 37.0567
rfemur -73.9522 -37.7278 4.22928
rtibia 100.797
rfoot 10.7319 -15.192
rtoes 50.3449
lfemur -15.6142 52.1015 40.9087
ltibia 137.356
lfoot 35.0697 -20.2797
ltoes 19.2922
153
root 5.07745 24.4634 -9.79541 5.01233 1.9579 -4.0699
lowerback 17.381 -0.284248 1.65673
upperback 2.2267 0.241605 3.75173
thorax -7.36701 0.123579 3.03186
lowerneck -8.65173 -5.18131 -0.1914
upperneck 2.34916 -7.18988 5.94874
head 2.50392 -3.3946 1.59581
rclavicle -4.17448e-015 -7.15625e-015
rhumerus 4.38437 20.7169 -10.0473
rradius 67.0133
rwrist -4.65813
rhand -38.0949 -25.1978
rfingers 7.12502
rthumb -11.1308 -54.8826
lclavicle -4.17448e-015 -7.15625e-015
lhumerus 4.36733 -1.80923 17.7343
lradius 119.328
lwrist 50.7012
lhand -28.3609 7.27018
lfingers 7.12502
lthumb -1.7345 37.2429
rfemur -73.8826 -37.1083 2.47954
rtibia 95.1957
rfoot 9.27888 -14.027
rtoes 48.3701
lfemur -11.9347 53.5096 48.6999
ltibia 139.941
lfoot 37.0129 -21.0017
ltoes 20.4003
154
root 5.10226 24.5712 -9.74763 4.83687 1.44973 -4.17576
lowerback 18.1244 -0.195918 2.15054
upperback 2.31628 0.49263 3.89538
thorax -7.68505 0.232441 2.85603
lowerneck -8.9184 -5.16145 -0.105922
upperneck 2.25436 -7.16162 5.76774
head 2.5072 -3.38311 1.51807
rclavicle 7.95139e-016 2.78299e-014
rhumerus 6.2092 20.1149 -9.59241
rradius 63.7912
rwrist -3.67022
rhand -38.1981 -25.4718
rfingers 7.12502
rthumb -11.2304 -55.1512
lclavicle 7.95139e-016 2.78299e-014
lhumerus 3.27531 -2.22905 18.2023
lradius 120.531
lwrist 51.1033
lhand -28.1642 7.43879
lfingers 7.12502
lthumb -1.54453 37.4129
rfemur -73.2564 -36.0691 0.453107
rtibia 88.5675
rfoot 7.78952 -11.8922
rtoes 44.8353
lfemur -9.00399 54.3782 54.8949
ltibia 141.826
lfoot 38.7133 -21.8996
ltoes 21.3375
155
root 5.12555 24.6703 -9.70039 4.77571 0.713956 -4.05825
lowerback 18.7957 -0.0217899 2.3774
upperback 2.41181 0.799659 3.96765
thorax -7.9568 0.373439 2.73589
lowerneck -9.17774 -5.141 -0.0168163
upperneck 2.07901 -7.12756 5.55481
head 2.48017 -3.37206 1.43065
rclavicle -1.39149e-015 -4.6118e-014
rhumerus 8.04801 19.3169 -9.15375
rradius 60.7074
rwrist -3.05017
rhand -38.2824 -25.6202
rfingers 7.12502
rthumb -11.3117 -55.2951
lclavicle -1.39149e-015 -4.6118e-014
lhumerus 2.15892 -2.22617 18.6383
lradius 121.897
lwrist 51.8354
lhand -27.8153 7.56261
lfingers 7.12502
lthumb -1.20749 37.5389
rfemur -72.1835 -34.6862 -1.85178
rtibia 81.1891
rfoot 5.91035 -9.56734
rtoes 39.3618
lfemur -6.97912 54.854 59.1096
ltibia 142.984
lfoot 40.0127 -23.0416
ltoes 22.1046
156
root 5.14305 24.758 -9.65048 4.78887 -0.214067 -3.7362
lowerback 19.3968 0.23716 2.3478
upperback 2.52474 1.15672 3.97846
thorax -8.1731 0.544301 2.67646
lowerneck -9.40685 -5.12129 0.0667992
upperneck 1.8197 -7.08868 5.31406
head 2.41824 -3.36224 1.33721
rclavicle -2.5842e-015 -1.74931e-014
rhumerus 9.91324 18.3783 -8.69774
rradius 57.7157
rwrist -2.82238
rhand -38.3859 -25.6919
rfingers 7.12502
rthumb -11.4115 -55.3614
lclavicle -2.5842e-015 -1.74931e-014
lhumerus 1.08854 -1.84216 18.975
lradius 123.326
lwrist 52.8411
lhand -27.3788 7.64964
lfingers 7.12502
lthumb -0.785943 37.6279
rfemur -70.7894 -33.0426 -4.38861
rtibia 73.4656
rfoot 3.57838 -7.90671
rtoes 32.4456
lfemur -5.84293 55.0791 61.3007
ltibia 143.429
lfoot 40.6872 -24.4896
ltoes 21.9984
157
root 5.15167 24.8334 -9.59501 4.82235 -1.25532 -3.2906
lowerback 19.9458 0.560119 2.15018
upperback 2.65473 1.55325 3.95125
thorax -8.34577 0.738023 2.65545
lowerneck -9.60222 -5.11128 0.145001
upperneck 1.52667 -7.05992 5.04525
head 2.33824 -3.35976 1.2367
rclavicle -1.19271e-015 -2.38542e-014
rhumerus 11.7665 17.3603 -8.19952
rradius 54.7787
rwrist -2.87925
rhand -38.513 -25.7441
rfingers 7.12502
rthumb -11.534 -55.4067
lclavicle -1.19271e-015 -2.38542e-014
lhumerus 0.162458 -1.17823 19.1711
lradius 124.672
lwrist 53.9705
lhand -26.9638 7.78745
lfingers 7.12502
lthumb -0.385084 37.7668
rfemur -69.183 -31.2264 -7.05847
rtibia 65.7491
rfoot 1.14805 -7.59857
rtoes 24.8922
lfemur -5.49204 55.1251 61.6968
ltibia 143.196
lfoot 40.6904 -25.9539
ltoes 21.5527
158
root 5.13065 24.8684 -9.52271 4.82963 -2.28872 -2.82079
lowerback 20.4506 0.906825 1.90324
upperback 2.79363 1.96343 3.91423
thorax -8.487 0.939115 2.64309
lowerneck -9.75958 -5.12067 0.211003
upperneck 1.27777 -7.05794 4.76417
head 2.26704 -3.37058 1.13396
rclavicle 6.75868e-015 -7.95139e-016
rhumerus 13.569 16.2984 -7.66671
rradius 51.835
rwrist -3.01463
rhand -38.5939 -25.8007
rfingers 7.12502
rthumb -11.6121 -55.4589
lclavicle 6.75868e-015 -7.95139e-016
lhumerus -0.552954 -0.366671 19.2112
lradius 125.805
lwrist 55.0401
lhand -26.7044 8.08829
lfingers 7.12502
lthumb -0.13456 38.068
rfemur -67.668 -29.3937 -9.72442
rtibia 58.6145
rfoot -0.925053 -8.88054
rtoes 18.4501
lfemur -5.38326 54.945 61.555
ltibia 142.419
lfoot 40.1865 -27.0553
ltoes 22.1883
159
root 5.12396 24.9247 -9.45354 4.79258 -3.18956 -2.43762
lowerback 20.897 1.23205 1.74485
upperback 2.93197 2.36199 3.90215
thorax -8.59574 1.13182 2.60639
lowerneck -9.89592 -5.15822 0.254725
upperneck 1.1567 -7.0974 4.48631
head 2.23704 -3.39949 1.03349
rclavicle -1.43125e-014 -2.70347e-014
rhumerus 15.2706 15.1863 -7.12879
rradius 48.8276
rwrist -2.91806
rhand -38.5255 -25.8566
rfingers 7.12502
rthumb -11.5461 -55.5186
lclavicle -1.43125e-014 -2.70347e-014
lhumerus -1.00085 0.449584 19.1431
lradius 126.588
lwrist 55.8319
lhand -26.6605 8.62281
lfingers 7.12502
lthumb -0.0921594 38.6025
rfemur -66.0587 -27.6887 -12.1135
rtibia 52.2733
rfoot -2.60785 -11.5892
rtoes 14.8432
lfemur -6.70237 54.7388 58.8289
ltibia 141.056
lfoot 39.2128 -27.0896
ltoes 22.7339
160
root 5.11242 24.9696 -9.37887 4.70837 -3.85305 -2.2249
lowerback 21.2748 1.49099 1.78147
upperback 3.04914 2.7198 3.94239
thorax -8.68365 1.29952 2.52418
lowerneck -10.014 -5.22808 0.266925
upperneck 1.23526 -7.18502 4.22167
head 2.27356 -3.44825 0.938365
rclavicle 1.19271e-015 4.77083e-015
rhumerus 16.8232 14.0069 -6.64498
rradius 45.7527
rwrist -2.33857
rhand -38.2107 -25.9068
rfingers 7.12502
rthumb -11.2425 -55.5855
lclavicle 1.19271e-015 4.77083e-015
lhumerus -1.19866 1.11952 19.0446
lradius 126.946
lwrist 56.1627
lhand -26.8554 9.35372
lfingers 7.12502
lthumb -0.280448 39.3333
rfemur -64.8458 -26.403 -13.8994
rtibia 47.4063
rfoot -3.96799 -15.0562
rtoes 14.8238
lfemur -8.89595 54.3799 54.9275
ltibia 139.315
lfoot 37.7002 -26.4197
ltoes 23.7022
161
root 5.09885 25.0046 -9.30006 4.57705 -4.1969 -2.22146
lowerback 21.5662 1.65048 2.06202
upperback 3.13679 3.00918 4.05517
thorax -8.74606 1.42819 2.40069
lowerneck -10.1328 -5.33164 0.245881
upperneck 1.54196 -7.32216 3.96619
head 2.3897 -3.51724 0.846011
rclavicle -3.1408e-014 -4.53229e-014
rhumerus 18.1935 12.7091 -6.27561
rradius 42.6505
rwrist -1.16527
rhand -37.6287 -25.971
rfingers 7.12502
rthumb -10.6811 -55.6795
lclavicle -3.1408e-014 -4.53229e-014
lhumerus -1.21227 1.56083 18.9966
lradius 126.892
lwrist 56.0094
lhand -27.2161 10.2129
lfingers 7.12502
lthumb -0.62876 40.1917
rfemur -64.2488 -25.827 -14.7453
rtibia 44.3702
rfoot -5.2191 -18.3924
rtoes 17.7427
lfemur -11.9642 53.7559 50.0415
ltibia 137.292
lfoot 35.783 -24.9532
ltoes 24.8402
162
root 5.08436 25.0292 -9.21768 4.39211 -4.21285 -2.40788
lowerback 21.7674 1.70249 2.56623
upperback 3.19806 3.21686 4.24373
thorax -8.77716 1.51258 2.25699
lowerneck -10.2628 -5.46276 0.184045
upperneck 2.05056 -7.49724 3.71515
head 2.57938 -3.60186 0.756065
rclavicle 2.34566e-014 4.13472e-014
rhumerus 19.3719 11.2381 -6.05901
rradius 39.62
rwrist 0.518184
rhand -36.8306 -26.0748
rfingers 7.12502
rthumb -9.91118 -55.8215
lclavicle 2.34566e-014 4.13472e-014
lhumerus -1.146 1.76331 19.0692
lradius 126.501
lwrist 55.4563
lhand -27.6989 11.1014
lfingers 7.12502
lthumb -1.09515 41.0784
rfemur -64.5318 -26.1347 -14.4442
rtibia 43.5864
rfoot -6.44992 -20.7636
rtoes 21.3842
lfemur -15.6482 52.734 44.519
ltibia 135.072
lfoot 33.535 -22.7581
ltoes 26.5319
163
root 5.06756 25.0413 -9.13046 4.12715 -3.94693 -2.73056
lowerback 21.9056 1.66029 3.22799
upperback 3.24033 3.34507 4.49713
thorax -8.78669 1.55579 2.11921
lowerneck -10.4044 -5.61223 0.0809156
upperneck 2.6955 -7.69395 3.46211
head 2.8212 -3.69607 0.667605
rclavicle 2.34566e-014 -1.59028e-015
rhumerus 20.3646 9.57284 -6.00994
rradius 36.7841
rwrist 2.45381
rhand -35.9451 -26.2742
rfingers 7.12502
rthumb -9.05687 -56.0597
lclavicle 2.34566e-014 -1.59028e-015
lhumerus -1.12071 1.76921 19.2884
lradius 125.904
lwrist 54.6974
lhand -28.125 11.9107
lfingers 7.12502
lthumb -1.50662 41.8851
rfemur -65.7042 -27.2639 -13.0743
rtibia 45.0292
rfoot -7.44076 -21.6532
rtoes 24.0313
lfemur -19.4883 51.216 38.8481
ltibia 132.703
lfoot 30.9281 -20.1868
ltoes 28.3034
164
root 5.04502 25.0369 -9.03626 3.77738 -3.47162 -3.12547
lowerback 21.9859 1.55418 3.96172
upperback 3.2781 3.41043 4.79822
thorax -8.76655 1.56852 2.01319
lowerneck -10.5475 -5.77544 -0.0577332
upperneck 3.36684 -7.90209 3.20737
head 3.07626 -3.79738 0.581774
rclavicle 2.38542e-015 -2.70347e-014
rhumerus 21.1745 7.73349 -6.08465
rradius 34.273
rwrist 4.24258
rhand -35.1323 -26.6279
rfingers 7.12502
rthumb -8.27241 -56.4459
lclavicle 2.38542e-015 -2.70347e-014
lhumerus -1.21652 1.65486 19.6563
lradius 125.225
lwrist 53.9336
lhand -28.4539 12.5128
lfingers 7.12502
lthumb -1.82434 42.4847
rfemur -67.5752 -28.9541 -10.9683
rtibia 48.3499
rfoot -7.92894 -21.0324
rtoes 24.2193
lfemur -23.0182 49.2141 33.5079
ltibia 130.219
lfoot 27.992 -17.5337
ltoes 30.0366
